<svg xmlns="http://www.w3.org/2000/svg" xmlns:xlink="http://www.w3.org/1999/xlink" width="2089" height="804" contentScriptType="application/ecmascript" contentStyleType="text/css" preserveAspectRatio="none" style="width:2089px;height:804px" version="1.1" viewBox="0 0 2089 804" zoomAndPan="magnify"><defs><filter id="f1tyzihefeaa12" width="300%" height="300%" x="-1" y="-1"><feGaussianBlur result="blurOut" stdDeviation="2"/><feColorMatrix in="blurOut" result="blurOut2" type="matrix" values="0 0 0 0 0 0 0 0 0 0 0 0 0 0 0 0 0 0 .4 0"/><feOffset dx="4" dy="4" in="blurOut2" result="blurOut3"/><feBlend in="SourceGraphic" in2="blurOut3" mode="normal"/></filter></defs><g><text x="843.25" y="26.708" fill="#000" font-family="sans-serif" font-size="18" lengthAdjust="spacingAndGlyphs" textLength="401">Proactive Authentication in Peripheral Role</text><ellipse cx="1030.156" cy="40.953" fill="#000" filter="url(#f1tyzihefeaa12)" rx="10" ry="10" style="stroke:none;stroke-width:1"/><rect width="119" height="33.969" x="970.656" y="70.953" fill="#FEFECE" filter="url(#f1tyzihefeaa12)" rx="12.5" ry="12.5" style="stroke:#a80036;stroke-width:1.5"/><text x="984.656" y="92.092" fill="#000" font-family="sans-serif" font-size="12" lengthAdjust="spacingAndGlyphs" textLength="95">A connects to B</text><path fill="#FBFB77" d="M1141.1563,114.9219 L1141.1563,138.6211 L1121.1563,142.6211 L1141.1563,146.6211 L1141.1563,170.3203 A0,0 0 0 0 1141.1563,170.3203 L1366.1563,170.3203 A0,0 0 0 0 1366.1563,170.3203 L1366.1563,124.9219 L1356.1563,114.9219 L1141.1563,114.9219 A0,0 0 0 0 1141.1563,114.9219" filter="url(#f1tyzihefeaa12)" style="stroke:#a80036;stroke-width:1"/><path fill="#FBFB77" d="M1356.1563,114.9219 L1356.1563,124.9219 L1366.1563,124.9219 L1356.1563,114.9219" style="stroke:#a80036;stroke-width:1"/><text x="1147.156" y="131.989" fill="#000" font-family="sans-serif" font-size="13" lengthAdjust="spacingAndGlyphs" textLength="150">SM actions triggered by</text><text x="1147.156" y="147.122" fill="#000" font-family="sans-serif" font-size="13" lengthAdjust="spacingAndGlyphs" textLength="134">connection complete</text><text x="1147.156" y="162.254" fill="#000" font-family="sans-serif" font-size="13" lengthAdjust="spacingAndGlyphs" textLength="204">(independent from GATT Client)</text><rect width="182" height="33.969" x="939.156" y="125.637" fill="#FEFECE" filter="url(#f1tyzihefeaa12)" rx="12.5" ry="12.5" style="stroke:#a80036;stroke-width:1.5"/><text x="953.156" y="146.775" fill="#000" font-family="sans-serif" font-size="12" lengthAdjust="spacingAndGlyphs" textLength="158">SM checks if LTK available</text><rect width="254" height="33.969" x="903.156" y="190.32" fill="#FEFECE" filter="url(#f1tyzihefeaa12)" rx="12.5" ry="12.5" style="stroke:#a80036;stroke-width:1.5"/><text x="917.156" y="211.459" fill="#000" font-family="sans-serif" font-size="12" lengthAdjust="spacingAndGlyphs" textLength="230">App triggers GATT Client request on A</text><polygon fill="#FEFECE" points="989.156 244.289 1071.156 244.289 1083.156 256.289 1071.156 268.289 989.156 268.289 977.156 256.289 989.156 244.289" filter="url(#f1tyzihefeaa12)" style="stroke:#a80036;stroke-width:1.5"/><text x="989.156" y="260.097" fill="#000" font-family="sans-serif" font-size="11" lengthAdjust="spacingAndGlyphs" textLength="82">LTK available?</text><text x="963.156" y="253.695" fill="#000" font-family="sans-serif" font-size="11" lengthAdjust="spacingAndGlyphs" textLength="14">no</text><text x="1083.156" y="253.695" fill="#000" font-family="sans-serif" font-size="11" lengthAdjust="spacingAndGlyphs" textLength="21">yes</text><rect width="173" height="33.969" x="295.813" y="278.289" fill="#FEFECE" filter="url(#f1tyzihefeaa12)" rx="12.5" ry="12.5" style="stroke:#a80036;stroke-width:1.5"/><text x="309.813" y="299.428" fill="#000" font-family="sans-serif" font-size="12" lengthAdjust="spacingAndGlyphs" textLength="149">GATT Client request sent</text><polygon fill="#FEFECE" points="213.813 332.258 550.813 332.258 562.813 344.258 550.813 356.258 213.813 356.258 201.813 344.258 213.813 332.258" filter="url(#f1tyzihefeaa12)" style="stroke:#a80036;stroke-width:1.5"/><text x="213.813" y="348.066" fill="#000" font-family="sans-serif" font-size="11" lengthAdjust="spacingAndGlyphs" textLength="337">GATT Server returns an ATT_ERROR_INSUFFICIENT_X error?</text><text x="187.813" y="341.664" fill="#000" font-family="sans-serif" font-size="11" lengthAdjust="spacingAndGlyphs" textLength="14">no</text><text x="562.813" y="341.664" fill="#000" font-family="sans-serif" font-size="11" lengthAdjust="spacingAndGlyphs" textLength="21">yes</text><rect width="204" height="33.969" x="11" y="366.258" fill="#23DB2B" filter="url(#f1tyzihefeaa12)" rx="12.5" ry="12.5" style="stroke:#a80036;stroke-width:1.5"/><text x="25" y="387.397" fill="#000" font-family="sans-serif" font-size="12" lengthAdjust="spacingAndGlyphs" textLength="180">App receives GATT Response</text><ellipse cx="113" cy="446.227" fill="#FFF" filter="url(#f1tyzihefeaa12)" rx="11" ry="11" style="stroke:#000;stroke-width:1"/><ellipse cx="113" cy="446.227" fill="#000" rx="6" ry="6" style="stroke:#7f7f7f;stroke-width:1"/><polygon fill="#FEFECE" points="536.625 366.258 766.625 366.258 778.625 378.258 766.625 390.258 536.625 390.258 524.625 378.258 536.625 366.258" filter="url(#f1tyzihefeaa12)" style="stroke:#a80036;stroke-width:1.5"/><text x="536.625" y="382.066" fill="#000" font-family="sans-serif" font-size="11" lengthAdjust="spacingAndGlyphs" textLength="230">ENABLE_GATT_CLIENT_PAIRING defined?</text><text x="510.625" y="375.664" fill="#000" font-family="sans-serif" font-size="11" lengthAdjust="spacingAndGlyphs" textLength="14">no</text><text x="778.625" y="375.664" fill="#000" font-family="sans-serif" font-size="11" lengthAdjust="spacingAndGlyphs" textLength="21">yes</text><rect width="291" height="47.938" x="245" y="400.258" fill="#FD5B41" filter="url(#f1tyzihefeaa12)" rx="12.5" ry="12.5" style="stroke:#a80036;stroke-width:1.5"/><text x="259" y="421.397" fill="#000" font-family="sans-serif" font-size="12" lengthAdjust="spacingAndGlyphs" textLength="267">App receives GATT_QUERY_COMPLETE event</text><text x="271" y="435.365" fill="#000" font-family="sans-serif" font-size="12" lengthAdjust="spacingAndGlyphs" textLength="192">with ATT_ERROR_INSUFFICIENT_X</text><ellipse cx="390.5" cy="494.195" fill="#FFF" filter="url(#f1tyzihefeaa12)" rx="11" ry="11" style="stroke:#000;stroke-width:1"/><ellipse cx="390.5" cy="494.195" fill="#000" rx="6" ry="6" style="stroke:#7f7f7f;stroke-width:1"/><rect width="194" height="33.969" x="815.75" y="400.258" fill="#FEFECE" filter="url(#f1tyzihefeaa12)" rx="12.5" ry="12.5" style="stroke:#a80036;stroke-width:1.5"/><text x="829.75" y="421.397" fill="#000" font-family="sans-serif" font-size="12" lengthAdjust="spacingAndGlyphs" textLength="170">SM_EVENT_PAIRING_STARTED</text><rect width="96" height="33.969" x="864.75" y="469.227" fill="#FEFECE" filter="url(#f1tyzihefeaa12)" rx="12.5" ry="12.5" style="stroke:#a80036;stroke-width:1.5"/><text x="878.75" y="490.365" fill="#000" font-family="sans-serif" font-size="12" lengthAdjust="spacingAndGlyphs" textLength="72">start pairing</text><polygon fill="#FEFECE" points="866.25 538.195 959.25 538.195 971.25 550.195 959.25 562.195 866.25 562.195 854.25 550.195 866.25 538.195" filter="url(#f1tyzihefeaa12)" style="stroke:#a80036;stroke-width:1.5"/><text x="866.25" y="554.003" fill="#000" font-family="sans-serif" font-size="11" lengthAdjust="spacingAndGlyphs" textLength="93">pairing success?</text><text x="833.25" y="547.601" fill="#000" font-family="sans-serif" font-size="11" lengthAdjust="spacingAndGlyphs" textLength="21">yes</text><text x="971.25" y="547.601" fill="#000" font-family="sans-serif" font-size="11" lengthAdjust="spacingAndGlyphs" textLength="14">no</text><rect width="352" height="33.969" x="566" y="572.195" fill="#FEFECE" filter="url(#f1tyzihefeaa12)" rx="12.5" ry="12.5" style="stroke:#a80036;stroke-width:1.5"/><text x="580" y="593.334" fill="#000" font-family="sans-serif" font-size="12" lengthAdjust="spacingAndGlyphs" textLength="328">SM_EVENT_PAIRING_COMPLETE(ERROR_CODE_SUCCESS)</text><rect width="191" height="33.969" x="646.5" y="641.164" fill="#FEFECE" filter="url(#f1tyzihefeaa12)" rx="12.5" ry="12.5" style="stroke:#a80036;stroke-width:1.5"/><text x="660.5" y="662.303" fill="#000" font-family="sans-serif" font-size="12" lengthAdjust="spacingAndGlyphs" textLength="167">GATT Client request re-sent</text><rect width="204" height="33.969" x="640" y="709.102" fill="#23DB2B" filter="url(#f1tyzihefeaa12)" rx="12.5" ry="12.5" style="stroke:#a80036;stroke-width:1.5"/><text x="654" y="730.24" fill="#000" font-family="sans-serif" font-size="12" lengthAdjust="spacingAndGlyphs" textLength="180">App receives GATT Response</text><ellipse cx="742" cy="776.07" fill="#FFF" filter="url(#f1tyzihefeaa12)" rx="11" ry="11" style="stroke:#000;stroke-width:1"/><ellipse cx="742" cy="776.07" fill="#000" rx="6" ry="6" style="stroke:#7f7f7f;stroke-width:1"/><rect width="243" height="33.969" x="962" y="572.195" fill="#FEFECE" filter="url(#f1tyzihefeaa12)" rx="12.5" ry="12.5" style="stroke:#a80036;stroke-width:1.5"/><text x="976" y="593.334" fill="#000" font-family="sans-serif" font-size="12" lengthAdjust="spacingAndGlyphs" textLength="219">SM_EVENT_PAIRING_COMPLETE(error)</text><rect width="291" height="47.938" x="938" y="641.164" fill="#FD5B41" filter="url(#f1tyzihefeaa12)" rx="12.5" ry="12.5" style="stroke:#a80036;stroke-width:1.5"/><text x="952" y="662.303" fill="#000" font-family="sans-serif" font-size="12" lengthAdjust="spacingAndGlyphs" textLength="267">App receives GATT_QUERY_COMPLETE event</text><text x="968" y="676.271" fill="#000" font-family="sans-serif" font-size="12" lengthAdjust="spacingAndGlyphs" textLength="192">with ATT_ERROR_INSUFFICIENT_X</text><ellipse cx="1083.5" cy="734.07" fill="#FFF" filter="url(#f1tyzihefeaa12)" rx="11" ry="11" style="stroke:#000;stroke-width:1"/><ellipse cx="1083.5" cy="734.07" fill="#000" rx="6" ry="6" style="stroke:#7f7f7f;stroke-width:1"/><rect width="235" height="33.969" x="1560.5" y="278.289" fill="#FEFECE" filter="url(#f1tyzihefeaa12)" rx="12.5" ry="12.5" style="stroke:#a80036;stroke-width:1.5"/><text x="1574.5" y="299.428" fill="#000" font-family="sans-serif" font-size="12" lengthAdjust="spacingAndGlyphs" textLength="211">SM_EVENT_REENCRYPTION_STARTED</text><rect width="119" height="33.969" x="1618.5" y="332.258" fill="#FEFECE" filter="url(#f1tyzihefeaa12)" rx="12.5" ry="12.5" style="stroke:#a80036;stroke-width:1.5"/><text x="1632.5" y="353.397" fill="#000" font-family="sans-serif" font-size="12" lengthAdjust="spacingAndGlyphs" textLength="95">start encryption</text><polygon fill="#FEFECE" points="1641 401.227 1715 401.227 1727 413.227 1715 425.227 1641 425.227 1629 413.227 1641 401.227" filter="url(#f1tyzihefeaa12)" style="stroke:#a80036;stroke-width:1.5"/><text x="1641" y="417.035" fill="#000" font-family="sans-serif" font-size="11" lengthAdjust="spacingAndGlyphs" textLength="74">re-encrypted</text><text x="1608" y="410.632" fill="#000" font-family="sans-serif" font-size="11" lengthAdjust="spacingAndGlyphs" textLength="21">yes</text><text x="1727" y="410.632" fill="#000" font-family="sans-serif" font-size="11" lengthAdjust="spacingAndGlyphs" textLength="14">no</text><rect width="393" height="33.969" x="1289" y="435.227" fill="#FEFECE" filter="url(#f1tyzihefeaa12)" rx="12.5" ry="12.5" style="stroke:#a80036;stroke-width:1.5"/><text x="1303" y="456.365" fill="#000" font-family="sans-serif" font-size="12" lengthAdjust="spacingAndGlyphs" textLength="369">SM_EVENT_REENCRYPTION_COMPLETE(ERROR_CODE_SUCCESS)</text><rect width="173" height="33.969" x="1399" y="504.195" fill="#FEFECE" filter="url(#f1tyzihefeaa12)" rx="12.5" ry="12.5" style="stroke:#a80036;stroke-width:1.5"/><text x="1413" y="525.334" fill="#000" font-family="sans-serif" font-size="12" lengthAdjust="spacingAndGlyphs" textLength="149">GATT Client request sent</text><rect width="204" height="33.969" x="1383.5" y="573.164" fill="#23DB2B" filter="url(#f1tyzihefeaa12)" rx="12.5" ry="12.5" style="stroke:#a80036;stroke-width:1.5"/><text x="1397.5" y="594.303" fill="#000" font-family="sans-serif" font-size="12" lengthAdjust="spacingAndGlyphs" textLength="180">App receives GATT Response</text><ellipse cx="1485.5" cy="653.133" fill="#FFF" filter="url(#f1tyzihefeaa12)" rx="11" ry="11" style="stroke:#000;stroke-width:1"/><ellipse cx="1485.5" cy="653.133" fill="#000" rx="6" ry="6" style="stroke:#7f7f7f;stroke-width:1"/><rect width="284" height="33.969" x="1728.5" y="435.227" fill="#FEFECE" filter="url(#f1tyzihefeaa12)" rx="12.5" ry="12.5" style="stroke:#a80036;stroke-width:1.5"/><text x="1742.5" y="456.365" fill="#000" font-family="sans-serif" font-size="12" lengthAdjust="spacingAndGlyphs" textLength="260">SM_EVENT_REENCRYPTION_COMPLETE(error)</text><rect width="337" height="47.938" x="1702" y="504.195" fill="#FD5B41" filter="url(#f1tyzihefeaa12)" rx="12.5" ry="12.5" style="stroke:#a80036;stroke-width:1.5"/><text x="1716" y="525.334" fill="#000" font-family="sans-serif" font-size="12" lengthAdjust="spacingAndGlyphs" textLength="267">App receives GATT_QUERY_COMPLETE event</text><text x="1732" y="539.303" fill="#000" font-family="sans-serif" font-size="12" lengthAdjust="spacingAndGlyphs" textLength="297">with ATT_ERROR_BONDING_INFORMATION_MISSING</text><path fill="#FBFB77" d="M1901.5,587.1328 L1901.5,610.832 L1881.5,614.832 L1901.5,618.832 L1901.5,642.5313 A0,0 0 0 0 1901.5,642.5313 L2077.5,642.5313 A0,0 0 0 0 2077.5,642.5313 L2077.5,597.1328 L2067.5,587.1328 L1901.5,587.1328 A0,0 0 0 0 1901.5,587.1328" filter="url(#f1tyzihefeaa12)" style="stroke:#a80036;stroke-width:1"/><path fill="#FBFB77" d="M2067.5,587.1328 L2067.5,597.1328 L2077.5,597.1328 L2067.5,587.1328" style="stroke:#a80036;stroke-width:1"/><text x="1907.5" y="604.2" fill="#000" font-family="sans-serif" font-size="13" lengthAdjust="spacingAndGlyphs" textLength="151">App can delete bonding</text><text x="1907.5" y="619.332" fill="#000" font-family="sans-serif" font-size="13" lengthAdjust="spacingAndGlyphs" textLength="148">information and repeat</text><text x="1907.5" y="634.465" fill="#000" font-family="sans-serif" font-size="13" lengthAdjust="spacingAndGlyphs" textLength="153">the GATT Client request</text><ellipse cx="1870.5" cy="614.832" fill="#FFF" filter="url(#f1tyzihefeaa12)" rx="11" ry="11" style="stroke:#000;stroke-width:1"/><ellipse cx="1870.5" cy="614.832" fill="#000" rx="6" ry="6" style="stroke:#7f7f7f;stroke-width:1"/><line style="stroke:#a80036;stroke-width:1.5" x1="1030.156" x2="1030.156" y1="50.953" y2="70.953"/><polygon fill="#A80036" points="1026.156 60.953 1030.156 70.953 1034.156 60.953 1030.156 64.953" style="stroke:#a80036;stroke-width:1"/><line style="stroke:#a80036;stroke-width:1.5" x1="1030.156" x2="1030.156" y1="104.922" y2="125.637"/><polygon fill="#A80036" points="1026.156 115.637 1030.156 125.637 1034.156 115.637 1030.156 119.637" style="stroke:#a80036;stroke-width:1"/><line style="stroke:#a80036;stroke-width:1.5" x1="1030.156" x2="1030.156" y1="159.606" y2="190.32"/><polygon fill="#A80036" points="1026.156 180.32 1030.156 190.32 1034.156 180.32 1030.156 184.32" style="stroke:#a80036;stroke-width:1"/><line style="stroke:#a80036;stroke-width:1.5" x1="113" x2="113" y1="400.227" y2="435.227"/><polygon fill="#A80036" points="109 425.227 113 435.227 117 425.227 113 429.227" style="stroke:#a80036;stroke-width:1"/><line style="stroke:#a80036;stroke-width:1.5" x1="390.5" x2="390.5" y1="448.195" y2="483.195"/><polygon fill="#A80036" points="386.5 473.195 390.5 483.195 394.5 473.195 390.5 477.195" style="stroke:#a80036;stroke-width:1"/><line style="stroke:#a80036;stroke-width:1.5" x1="912.75" x2="912.75" y1="434.227" y2="469.227"/><polygon fill="#A80036" points="908.75 459.227 912.75 469.227 916.75 459.227 912.75 463.227" style="stroke:#a80036;stroke-width:1"/><line style="stroke:#a80036;stroke-width:1.5" x1="742" x2="742" y1="606.164" y2="641.164"/><polygon fill="#A80036" points="738 631.164 742 641.164 746 631.164 742 635.164" style="stroke:#a80036;stroke-width:1"/><line style="stroke:#a80036;stroke-width:1.5" x1="742" x2="742" y1="675.133" y2="709.102"/><polygon fill="#A80036" points="738 699.102 742 709.102 746 699.102 742 703.102" style="stroke:#a80036;stroke-width:1"/><line style="stroke:#a80036;stroke-width:1.5" x1="742" x2="742" y1="743.07" y2="765.07"/><polygon fill="#A80036" points="738 755.07 742 765.07 746 755.07 742 759.07" style="stroke:#a80036;stroke-width:1"/><line style="stroke:#a80036;stroke-width:1.5" x1="1083.5" x2="1083.5" y1="606.164" y2="641.164"/><polygon fill="#A80036" points="1079.5 631.164 1083.5 641.164 1087.5 631.164 1083.5 635.164" style="stroke:#a80036;stroke-width:1"/><line style="stroke:#a80036;stroke-width:1.5" x1="1083.5" x2="1083.5" y1="689.102" y2="723.07"/><polygon fill="#A80036" points="1079.5 713.07 1083.5 723.07 1087.5 713.07 1083.5 717.07" style="stroke:#a80036;stroke-width:1"/><line style="stroke:#a80036;stroke-width:1.5" x1="854.25" x2="742" y1="550.195" y2="550.195"/><line style="stroke:#a80036;stroke-width:1.5" x1="742" x2="742" y1="550.195" y2="572.195"/><polygon fill="#A80036" points="738 562.195 742 572.195 746 562.195 742 566.195" style="stroke:#a80036;stroke-width:1"/><line style="stroke:#a80036;stroke-width:1.5" x1="971.25" x2="1083.5" y1="550.195" y2="550.195"/><line style="stroke:#a80036;stroke-width:1.5" x1="1083.5" x2="1083.5" y1="550.195" y2="572.195"/><polygon fill="#A80036" points="1079.5 562.195 1083.5 572.195 1087.5 562.195 1083.5 566.195" style="stroke:#a80036;stroke-width:1"/><line style="stroke:#a80036;stroke-width:1.5" x1="912.75" x2="912.75" y1="503.195" y2="538.195"/><polygon fill="#A80036" points="908.75 528.195 912.75 538.195 916.75 528.195 912.75 532.195" style="stroke:#a80036;stroke-width:1"/><line style="stroke:#a80036;stroke-width:1.5" x1="524.625" x2="390.5" y1="378.258" y2="378.258"/><line style="stroke:#a80036;stroke-width:1.5" x1="390.5" x2="390.5" y1="378.258" y2="400.258"/><polygon fill="#A80036" points="386.5 390.258 390.5 400.258 394.5 390.258 390.5 394.258" style="stroke:#a80036;stroke-width:1"/><line style="stroke:#a80036;stroke-width:1.5" x1="778.625" x2="912.75" y1="378.258" y2="378.258"/><line style="stroke:#a80036;stroke-width:1.5" x1="912.75" x2="912.75" y1="378.258" y2="400.258"/><polygon fill="#A80036" points="908.75 390.258 912.75 400.258 916.75 390.258 912.75 394.258" style="stroke:#a80036;stroke-width:1"/><line style="stroke:#a80036;stroke-width:1.5" x1="201.813" x2="113" y1="344.258" y2="344.258"/><line style="stroke:#a80036;stroke-width:1.5" x1="113" x2="113" y1="344.258" y2="366.258"/><polygon fill="#A80036" points="109 356.258 113 366.258 117 356.258 113 360.258" style="stroke:#a80036;stroke-width:1"/><line style="stroke:#a80036;stroke-width:1.5" x1="562.813" x2="651.625" y1="344.258" y2="344.258"/><line style="stroke:#a80036;stroke-width:1.5" x1="651.625" x2="651.625" y1="344.258" y2="366.258"/><polygon fill="#A80036" points="647.625 356.258 651.625 366.258 655.625 356.258 651.625 360.258" style="stroke:#a80036;stroke-width:1"/><line style="stroke:#a80036;stroke-width:1.5" x1="382.313" x2="382.313" y1="312.258" y2="332.258"/><polygon fill="#A80036" points="378.313 322.258 382.313 332.258 386.313 322.258 382.313 326.258" style="stroke:#a80036;stroke-width:1"/><line style="stroke:#a80036;stroke-width:1.5" x1="1678" x2="1678" y1="312.258" y2="332.258"/><polygon fill="#A80036" points="1674 322.258 1678 332.258 1682 322.258 1678 326.258" style="stroke:#a80036;stroke-width:1"/><line style="stroke:#a80036;stroke-width:1.5" x1="1485.5" x2="1485.5" y1="469.195" y2="504.195"/><polygon fill="#A80036" points="1481.5 494.195 1485.5 504.195 1489.5 494.195 1485.5 498.195" style="stroke:#a80036;stroke-width:1"/><line style="stroke:#a80036;stroke-width:1.5" x1="1485.5" x2="1485.5" y1="538.164" y2="573.164"/><polygon fill="#A80036" points="1481.5 563.164 1485.5 573.164 1489.5 563.164 1485.5 567.164" style="stroke:#a80036;stroke-width:1"/><line style="stroke:#a80036;stroke-width:1.5" x1="1485.5" x2="1485.5" y1="607.133" y2="642.133"/><polygon fill="#A80036" points="1481.5 632.133 1485.5 642.133 1489.5 632.133 1485.5 636.133" style="stroke:#a80036;stroke-width:1"/><line style="stroke:#a80036;stroke-width:1.5" x1="1870.5" x2="1870.5" y1="469.195" y2="504.195"/><polygon fill="#A80036" points="1866.5 494.195 1870.5 504.195 1874.5 494.195 1870.5 498.195" style="stroke:#a80036;stroke-width:1"/><line style="stroke:#a80036;stroke-width:1.5" x1="1870.5" x2="1870.5" y1="552.133" y2="603.832"/><polygon fill="#A80036" points="1866.5 593.832 1870.5 603.832 1874.5 593.832 1870.5 597.832" style="stroke:#a80036;stroke-width:1"/><line style="stroke:#a80036;stroke-width:1.5" x1="1629" x2="1485.5" y1="413.227" y2="413.227"/><line style="stroke:#a80036;stroke-width:1.5" x1="1485.5" x2="1485.5" y1="413.227" y2="435.227"/><polygon fill="#A80036" points="1481.5 425.227 1485.5 435.227 1489.5 425.227 1485.5 429.227" style="stroke:#a80036;stroke-width:1"/><line style="stroke:#a80036;stroke-width:1.5" x1="1727" x2="1870.5" y1="413.227" y2="413.227"/><line style="stroke:#a80036;stroke-width:1.5" x1="1870.5" x2="1870.5" y1="413.227" y2="435.227"/><polygon fill="#A80036" points="1866.5 425.227 1870.5 435.227 1874.5 425.227 1870.5 429.227" style="stroke:#a80036;stroke-width:1"/><line style="stroke:#a80036;stroke-width:1.5" x1="1678" x2="1678" y1="366.227" y2="401.227"/><polygon fill="#A80036" points="1674 391.227 1678 401.227 1682 391.227 1678 395.227" style="stroke:#a80036;stroke-width:1"/><line style="stroke:#a80036;stroke-width:1.5" x1="977.156" x2="382.313" y1="256.289" y2="256.289"/><line style="stroke:#a80036;stroke-width:1.5" x1="382.313" x2="382.313" y1="256.289" y2="278.289"/><polygon fill="#A80036" points="378.313 268.289 382.313 278.289 386.313 268.289 382.313 272.289" style="stroke:#a80036;stroke-width:1"/><line style="stroke:#a80036;stroke-width:1.5" x1="1083.156" x2="1678" y1="256.289" y2="256.289"/><line style="stroke:#a80036;stroke-width:1.5" x1="1678" x2="1678" y1="256.289" y2="278.289"/><polygon fill="#A80036" points="1674 268.289 1678 278.289 1682 268.289 1678 272.289" style="stroke:#a80036;stroke-width:1"/><line style="stroke:#a80036;stroke-width:1.5" x1="1030.156" x2="1030.156" y1="224.289" y2="244.289"/><polygon fill="#A80036" points="1026.156 234.289 1030.156 244.289 1034.156 234.289 1030.156 238.289" style="stroke:#a80036;stroke-width:1"/></g></svg>