<svg xmlns="http://www.w3.org/2000/svg" xmlns:xlink="http://www.w3.org/1999/xlink" width="1428" height="1096" contentScriptType="application/ecmascript" contentStyleType="text/css" preserveAspectRatio="none" style="width:1428px;height:1096px" version="1.1" viewBox="0 0 1428 1096" zoomAndPan="magnify"><defs><filter id="fr2kl6r8w9m30" width="300%" height="300%" x="-1" y="-1"><feGaussianBlur result="blurOut" stdDeviation="2"/><feColorMatrix in="blurOut" result="blurOut2" type="matrix" values="0 0 0 0 0 0 0 0 0 0 0 0 0 0 0 0 0 0 .4 0"/><feOffset dx="4" dy="4" in="blurOut2" result="blurOut3"/><feBlend in="SourceGraphic" in2="blurOut3" mode="normal"/></filter></defs><g><text x="530.25" y="26.708" fill="#000" font-family="sans-serif" font-size="18" lengthAdjust="spacingAndGlyphs" textLength="366">Reactive Authentication in Central Role</text><ellipse cx="1004.188" cy="40.953" fill="#000" filter="url(#fr2kl6r8w9m30)" rx="10" ry="10" style="stroke:none;stroke-width:1"/><rect width="166" height="33.969" x="921.188" y="70.953" fill="#FEFECE" filter="url(#fr2kl6r8w9m30)" rx="12.5" ry="12.5" style="stroke:#a80036;stroke-width:1.5"/><text x="935.188" y="92.092" fill="#000" font-family="sans-serif" font-size="12" lengthAdjust="spacingAndGlyphs" textLength="142">App on A connects to B</text><rect width="254" height="33.969" x="877.188" y="124.922" fill="#FEFECE" filter="url(#fr2kl6r8w9m30)" rx="12.5" ry="12.5" style="stroke:#a80036;stroke-width:1.5"/><text x="891.188" y="146.06" fill="#000" font-family="sans-serif" font-size="12" lengthAdjust="spacingAndGlyphs" textLength="230">App on A triggers GATT Client request</text><rect width="173" height="33.969" x="917.688" y="178.891" fill="#FEFECE" filter="url(#fr2kl6r8w9m30)" rx="12.5" ry="12.5" style="stroke:#a80036;stroke-width:1.5"/><text x="931.688" y="200.029" fill="#000" font-family="sans-serif" font-size="12" lengthAdjust="spacingAndGlyphs" textLength="149">GATT Client request sent</text><polygon fill="#FEFECE" points="835.688 232.859 1172.688 232.859 1184.688 244.859 1172.688 256.859 835.688 256.859 823.688 244.859 835.688 232.859" filter="url(#fr2kl6r8w9m30)" style="stroke:#a80036;stroke-width:1.5"/><text x="835.688" y="248.667" fill="#000" font-family="sans-serif" font-size="11" lengthAdjust="spacingAndGlyphs" textLength="337">GATT Server returns an ATT_ERROR_INSUFFICIENT_X error?</text><text x="802.688" y="242.265" fill="#000" font-family="sans-serif" font-size="11" lengthAdjust="spacingAndGlyphs" textLength="21">yes</text><text x="1184.688" y="242.265" fill="#000" font-family="sans-serif" font-size="11" lengthAdjust="spacingAndGlyphs" textLength="14">no</text><polygon fill="#FEFECE" points="583.875 266.859 813.875 266.859 825.875 278.859 813.875 290.859 583.875 290.859 571.875 278.859 583.875 266.859" filter="url(#fr2kl6r8w9m30)" style="stroke:#a80036;stroke-width:1.5"/><text x="583.875" y="282.668" fill="#000" font-family="sans-serif" font-size="11" lengthAdjust="spacingAndGlyphs" textLength="230">ENABLE_GATT_CLIENT_PAIRING defined?</text><text x="550.875" y="276.265" fill="#000" font-family="sans-serif" font-size="11" lengthAdjust="spacingAndGlyphs" textLength="21">yes</text><text x="825.875" y="276.265" fill="#000" font-family="sans-serif" font-size="11" lengthAdjust="spacingAndGlyphs" textLength="14">no</text><rect width="235" height="33.969" x="269.25" y="349.262" fill="#FEFECE" filter="url(#fr2kl6r8w9m30)" rx="12.5" ry="12.5" style="stroke:#a80036;stroke-width:1.5"/><text x="283.25" y="370.4" fill="#000" font-family="sans-serif" font-size="12" lengthAdjust="spacingAndGlyphs" textLength="211">SM_EVENT_REENCRYPTION_STARTED</text><rect width="119" height="33.969" x="327.25" y="418.231" fill="#FEFECE" filter="url(#fr2kl6r8w9m30)" rx="12.5" ry="12.5" style="stroke:#a80036;stroke-width:1.5"/><text x="341.25" y="439.369" fill="#000" font-family="sans-serif" font-size="12" lengthAdjust="spacingAndGlyphs" textLength="95">start encryption</text><polygon fill="#FEFECE" points="349.75 472.199 423.75 472.199 435.75 484.199 423.75 496.199 349.75 496.199 337.75 484.199 349.75 472.199" filter="url(#fr2kl6r8w9m30)" style="stroke:#a80036;stroke-width:1.5"/><text x="349.75" y="488.007" fill="#000" font-family="sans-serif" font-size="11" lengthAdjust="spacingAndGlyphs" textLength="74">re-encrypted</text><text x="316.75" y="481.605" fill="#000" font-family="sans-serif" font-size="11" lengthAdjust="spacingAndGlyphs" textLength="21">yes</text><text x="435.75" y="481.605" fill="#000" font-family="sans-serif" font-size="11" lengthAdjust="spacingAndGlyphs" textLength="14">no</text><rect width="393" height="33.969" x="11" y="506.199" fill="#FEFECE" filter="url(#fr2kl6r8w9m30)" rx="12.5" ry="12.5" style="stroke:#a80036;stroke-width:1.5"/><text x="25" y="527.338" fill="#000" font-family="sans-serif" font-size="12" lengthAdjust="spacingAndGlyphs" textLength="369">SM_EVENT_REENCRYPTION_COMPLETE(ERROR_CODE_SUCCESS)</text><rect width="191" height="33.969" x="112" y="560.168" fill="#FEFECE" filter="url(#fr2kl6r8w9m30)" rx="12.5" ry="12.5" style="stroke:#a80036;stroke-width:1.5"/><text x="126" y="581.307" fill="#000" font-family="sans-serif" font-size="12" lengthAdjust="spacingAndGlyphs" textLength="167">GATT Client request re-sent</text><rect width="204" height="33.969" x="105.5" y="614.137" fill="#23DB2B" filter="url(#fr2kl6r8w9m30)" rx="12.5" ry="12.5" style="stroke:#a80036;stroke-width:1.5"/><text x="119.5" y="635.275" fill="#000" font-family="sans-serif" font-size="12" lengthAdjust="spacingAndGlyphs" textLength="180">App receives GATT Response</text><ellipse cx="207.5" cy="679.106" fill="#FFF" filter="url(#fr2kl6r8w9m30)" rx="11" ry="11" style="stroke:#000;stroke-width:1"/><ellipse cx="207.5" cy="679.106" fill="#000" rx="6" ry="6" style="stroke:#7f7f7f;stroke-width:1"/><rect width="284" height="33.969" x="424" y="506.199" fill="#FEFECE" filter="url(#fr2kl6r8w9m30)" rx="12.5" ry="12.5" style="stroke:#a80036;stroke-width:1.5"/><text x="438" y="527.338" fill="#000" font-family="sans-serif" font-size="12" lengthAdjust="spacingAndGlyphs" textLength="260">SM_EVENT_REENCRYPTION_COMPLETE(error)</text><rect width="187" height="33.969" x="472.5" y="560.168" fill="#FEFECE" filter="url(#fr2kl6r8w9m30)" rx="12.5" ry="12.5" style="stroke:#a80036;stroke-width:1.5"/><text x="486.5" y="581.307" fill="#000" font-family="sans-serif" font-size="12" lengthAdjust="spacingAndGlyphs" textLength="163">delete bonding information</text><polygon fill="#FEFECE" points="345.75 300.859 427.75 300.859 439.75 312.859 427.75 324.859 345.75 324.859 333.75 312.859 345.75 300.859" filter="url(#fr2kl6r8w9m30)" style="stroke:#a80036;stroke-width:1.5"/><text x="390.75" y="335.07" fill="#000" font-family="sans-serif" font-size="11" lengthAdjust="spacingAndGlyphs" textLength="21">yes</text><text x="345.75" y="316.668" fill="#000" font-family="sans-serif" font-size="11" lengthAdjust="spacingAndGlyphs" textLength="82">LTK available?</text><polygon fill="#FEFECE" points="386.75 710.106 398.75 722.106 386.75 734.106 374.75 722.106 386.75 710.106" filter="url(#fr2kl6r8w9m30)" style="stroke:#a80036;stroke-width:1.5"/><rect width="194" height="33.969" x="289.75" y="754.106" fill="#FEFECE" filter="url(#fr2kl6r8w9m30)" rx="12.5" ry="12.5" style="stroke:#a80036;stroke-width:1.5"/><text x="303.75" y="775.244" fill="#000" font-family="sans-serif" font-size="12" lengthAdjust="spacingAndGlyphs" textLength="170">SM_EVENT_PAIRING_STARTED</text><rect width="96" height="33.969" x="338.75" y="808.074" fill="#FEFECE" filter="url(#fr2kl6r8w9m30)" rx="12.5" ry="12.5" style="stroke:#a80036;stroke-width:1.5"/><text x="352.75" y="829.213" fill="#000" font-family="sans-serif" font-size="12" lengthAdjust="spacingAndGlyphs" textLength="72">start pairing</text><polygon fill="#FEFECE" points="340.25 862.043 433.25 862.043 445.25 874.043 433.25 886.043 340.25 886.043 328.25 874.043 340.25 862.043" filter="url(#fr2kl6r8w9m30)" style="stroke:#a80036;stroke-width:1.5"/><text x="340.25" y="877.851" fill="#000" font-family="sans-serif" font-size="11" lengthAdjust="spacingAndGlyphs" textLength="93">pairing success?</text><text x="307.25" y="871.449" fill="#000" font-family="sans-serif" font-size="11" lengthAdjust="spacingAndGlyphs" textLength="21">yes</text><text x="445.25" y="871.449" fill="#000" font-family="sans-serif" font-size="11" lengthAdjust="spacingAndGlyphs" textLength="14">no</text><rect width="352" height="33.969" x="52" y="896.043" fill="#FEFECE" filter="url(#fr2kl6r8w9m30)" rx="12.5" ry="12.5" style="stroke:#a80036;stroke-width:1.5"/><text x="66" y="917.182" fill="#000" font-family="sans-serif" font-size="12" lengthAdjust="spacingAndGlyphs" textLength="328">SM_EVENT_PAIRING_COMPLETE(ERROR_CODE_SUCCESS)</text><rect width="191" height="33.969" x="132.5" y="950.012" fill="#FEFECE" filter="url(#fr2kl6r8w9m30)" rx="12.5" ry="12.5" style="stroke:#a80036;stroke-width:1.5"/><text x="146.5" y="971.15" fill="#000" font-family="sans-serif" font-size="12" lengthAdjust="spacingAndGlyphs" textLength="167">GATT Client request re-sent</text><rect width="204" height="33.969" x="126" y="1003.981" fill="#23DB2B" filter="url(#fr2kl6r8w9m30)" rx="12.5" ry="12.5" style="stroke:#a80036;stroke-width:1.5"/><text x="140" y="1025.119" fill="#000" font-family="sans-serif" font-size="12" lengthAdjust="spacingAndGlyphs" textLength="180">App receives GATT Response</text><ellipse cx="228" cy="1068.949" fill="#FFF" filter="url(#fr2kl6r8w9m30)" rx="11" ry="11" style="stroke:#000;stroke-width:1"/><ellipse cx="228" cy="1068.949" fill="#000" rx="6" ry="6" style="stroke:#7f7f7f;stroke-width:1"/><rect width="243" height="33.969" x="424" y="896.043" fill="#FEFECE" filter="url(#fr2kl6r8w9m30)" rx="12.5" ry="12.5" style="stroke:#a80036;stroke-width:1.5"/><text x="438" y="917.182" fill="#000" font-family="sans-serif" font-size="12" lengthAdjust="spacingAndGlyphs" textLength="219">SM_EVENT_PAIRING_COMPLETE(error)</text><rect width="223" height="33.969" x="434" y="950.012" fill="#FD5B41" filter="url(#fr2kl6r8w9m30)" rx="12.5" ry="12.5" style="stroke:#a80036;stroke-width:1.5"/><text x="448" y="971.15" fill="#000" font-family="sans-serif" font-size="12" lengthAdjust="spacingAndGlyphs" textLength="199">App receives a GATT Client error</text><ellipse cx="545.5" cy="1014.981" fill="#FFF" filter="url(#fr2kl6r8w9m30)" rx="11" ry="11" style="stroke:#000;stroke-width:1"/><ellipse cx="545.5" cy="1014.981" fill="#000" rx="6" ry="6" style="stroke:#7f7f7f;stroke-width:1"/><rect width="333" height="33.969" x="844.5" y="300.859" fill="#FD5B41" filter="url(#fr2kl6r8w9m30)" rx="12.5" ry="12.5" style="stroke:#a80036;stroke-width:1.5"/><text x="858.5" y="321.998" fill="#000" font-family="sans-serif" font-size="12" lengthAdjust="spacingAndGlyphs" textLength="309">ATT_QUERY_COMPLETE(ATT_ERROR_INSUFFICIENT_X)</text><path fill="#FBFB77" d="M760,369.8281 L760,410.0938 A0,0 0 0 0 760,410.0938 L980,410.0938 A0,0 0 0 0 980,410.0938 L980,393.9609 L1000,389.9609 L980,385.9609 L980,379.8281 L970,369.8281 L760,369.8281 A0,0 0 0 0 760,369.8281" filter="url(#fr2kl6r8w9m30)" style="stroke:#a80036;stroke-width:1"/><path fill="#FBFB77" d="M970,369.8281 L970,379.8281 L980,379.8281 L970,369.8281" style="stroke:#a80036;stroke-width:1"/><text x="766" y="386.895" fill="#000" font-family="sans-serif" font-size="13" lengthAdjust="spacingAndGlyphs" textLength="173">App can trigger pairing and</text><text x="766" y="402.028" fill="#000" font-family="sans-serif" font-size="13" lengthAdjust="spacingAndGlyphs" textLength="199">repeat the GATT Client request</text><ellipse cx="1011" cy="389.961" fill="#FFF" filter="url(#fr2kl6r8w9m30)" rx="11" ry="11" style="stroke:#000;stroke-width:1"/><ellipse cx="1011" cy="389.961" fill="#000" rx="6" ry="6" style="stroke:#7f7f7f;stroke-width:1"/><rect width="204" height="33.969" x="1207.5" y="266.859" fill="#23DB2B" filter="url(#fr2kl6r8w9m30)" rx="12.5" ry="12.5" style="stroke:#a80036;stroke-width:1.5"/><text x="1221.5" y="287.998" fill="#000" font-family="sans-serif" font-size="12" lengthAdjust="spacingAndGlyphs" textLength="180">App receives GATT Response</text><ellipse cx="1309.5" cy="346.828" fill="#FFF" filter="url(#fr2kl6r8w9m30)" rx="11" ry="11" style="stroke:#000;stroke-width:1"/><ellipse cx="1309.5" cy="346.828" fill="#000" rx="6" ry="6" style="stroke:#7f7f7f;stroke-width:1"/><line style="stroke:#a80036;stroke-width:1.5" x1="1004.188" x2="1004.188" y1="50.953" y2="70.953"/><polygon fill="#A80036" points="1000.188 60.953 1004.188 70.953 1008.188 60.953 1004.188 64.953" style="stroke:#a80036;stroke-width:1"/><line style="stroke:#a80036;stroke-width:1.5" x1="1004.188" x2="1004.188" y1="104.922" y2="124.922"/><polygon fill="#A80036" points="1000.188 114.922 1004.188 124.922 1008.188 114.922 1004.188 118.922" style="stroke:#a80036;stroke-width:1"/><line style="stroke:#a80036;stroke-width:1.5" x1="1004.188" x2="1004.188" y1="158.891" y2="178.891"/><polygon fill="#A80036" points="1000.188 168.891 1004.188 178.891 1008.188 168.891 1004.188 172.891" style="stroke:#a80036;stroke-width:1"/><line style="stroke:#a80036;stroke-width:1.5" x1="386.75" x2="386.75" y1="383.231" y2="418.231"/><polygon fill="#A80036" points="382.75 408.231 386.75 418.231 390.75 408.231 386.75 412.231" style="stroke:#a80036;stroke-width:1"/><line style="stroke:#a80036;stroke-width:1.5" x1="207.5" x2="207.5" y1="540.168" y2="560.168"/><polygon fill="#A80036" points="203.5 550.168 207.5 560.168 211.5 550.168 207.5 554.168" style="stroke:#a80036;stroke-width:1"/><line style="stroke:#a80036;stroke-width:1.5" x1="207.5" x2="207.5" y1="594.137" y2="614.137"/><polygon fill="#A80036" points="203.5 604.137 207.5 614.137 211.5 604.137 207.5 608.137" style="stroke:#a80036;stroke-width:1"/><line style="stroke:#a80036;stroke-width:1.5" x1="207.5" x2="207.5" y1="648.106" y2="668.106"/><polygon fill="#A80036" points="203.5 658.106 207.5 668.106 211.5 658.106 207.5 662.106" style="stroke:#a80036;stroke-width:1"/><line style="stroke:#a80036;stroke-width:1.5" x1="566" x2="566" y1="540.168" y2="560.168"/><polygon fill="#A80036" points="562 550.168 566 560.168 570 550.168 566 554.168" style="stroke:#a80036;stroke-width:1"/><line style="stroke:#a80036;stroke-width:1.5" x1="337.75" x2="207.5" y1="484.199" y2="484.199"/><line style="stroke:#a80036;stroke-width:1.5" x1="207.5" x2="207.5" y1="484.199" y2="506.199"/><polygon fill="#A80036" points="203.5 496.199 207.5 506.199 211.5 496.199 207.5 500.199" style="stroke:#a80036;stroke-width:1"/><line style="stroke:#a80036;stroke-width:1.5" x1="435.75" x2="566" y1="484.199" y2="484.199"/><line style="stroke:#a80036;stroke-width:1.5" x1="566" x2="566" y1="484.199" y2="506.199"/><polygon fill="#A80036" points="562 496.199 566 506.199 570 496.199 566 500.199" style="stroke:#a80036;stroke-width:1"/><line style="stroke:#a80036;stroke-width:1.5" x1="566" x2="566" y1="594.137" y2="695.106"/><line style="stroke:#a80036;stroke-width:1.5" x1="566" x2="386.75" y1="695.106" y2="695.106"/><line style="stroke:#a80036;stroke-width:1.5" x1="386.75" x2="386.75" y1="695.106" y2="710.106"/><polygon fill="#A80036" points="382.75 700.106 386.75 710.106 390.75 700.106 386.75 704.106" style="stroke:#a80036;stroke-width:1"/><line style="stroke:#a80036;stroke-width:1.5" x1="386.75" x2="386.75" y1="452.199" y2="472.199"/><polygon fill="#A80036" points="382.75 462.199 386.75 472.199 390.75 462.199 386.75 466.199" style="stroke:#a80036;stroke-width:1"/><line style="stroke:#a80036;stroke-width:1.5" x1="386.75" x2="386.75" y1="324.859" y2="349.262"/><polygon fill="#A80036" points="382.75 339.262 386.75 349.262 390.75 339.262 386.75 343.262" style="stroke:#a80036;stroke-width:1"/><line style="stroke:#a80036;stroke-width:1.5" x1="439.75" x2="728" y1="312.859" y2="312.859"/><polygon fill="#A80036" points="724 527.684 728 537.684 732 527.684 728 531.684" style="stroke:#a80036;stroke-width:1.5"/><line style="stroke:#a80036;stroke-width:1.5" x1="728" x2="728" y1="312.859" y2="722.106"/><line style="stroke:#a80036;stroke-width:1.5" x1="728" x2="398.75" y1="722.106" y2="722.106"/><polygon fill="#A80036" points="408.75 718.106 398.75 722.106 408.75 726.106 404.75 722.106" style="stroke:#a80036;stroke-width:1"/><line style="stroke:#a80036;stroke-width:1.5" x1="386.75" x2="386.75" y1="734.106" y2="754.106"/><polygon fill="#A80036" points="382.75 744.106 386.75 754.106 390.75 744.106 386.75 748.106" style="stroke:#a80036;stroke-width:1"/><line style="stroke:#a80036;stroke-width:1.5" x1="386.75" x2="386.75" y1="788.074" y2="808.074"/><polygon fill="#A80036" points="382.75 798.074 386.75 808.074 390.75 798.074 386.75 802.074" style="stroke:#a80036;stroke-width:1"/><line style="stroke:#a80036;stroke-width:1.5" x1="228" x2="228" y1="930.012" y2="950.012"/><polygon fill="#A80036" points="224 940.012 228 950.012 232 940.012 228 944.012" style="stroke:#a80036;stroke-width:1"/><line style="stroke:#a80036;stroke-width:1.5" x1="228" x2="228" y1="983.981" y2="1003.981"/><polygon fill="#A80036" points="224 993.981 228 1003.981 232 993.981 228 997.981" style="stroke:#a80036;stroke-width:1"/><line style="stroke:#a80036;stroke-width:1.5" x1="228" x2="228" y1="1037.949" y2="1057.949"/><polygon fill="#A80036" points="224 1047.949 228 1057.949 232 1047.949 228 1051.949" style="stroke:#a80036;stroke-width:1"/><line style="stroke:#a80036;stroke-width:1.5" x1="545.5" x2="545.5" y1="930.012" y2="950.012"/><polygon fill="#A80036" points="541.5 940.012 545.5 950.012 549.5 940.012 545.5 944.012" style="stroke:#a80036;stroke-width:1"/><line style="stroke:#a80036;stroke-width:1.5" x1="545.5" x2="545.5" y1="983.981" y2="1003.981"/><polygon fill="#A80036" points="541.5 993.981 545.5 1003.981 549.5 993.981 545.5 997.981" style="stroke:#a80036;stroke-width:1"/><line style="stroke:#a80036;stroke-width:1.5" x1="328.25" x2="228" y1="874.043" y2="874.043"/><line style="stroke:#a80036;stroke-width:1.5" x1="228" x2="228" y1="874.043" y2="896.043"/><polygon fill="#A80036" points="224 886.043 228 896.043 232 886.043 228 890.043" style="stroke:#a80036;stroke-width:1"/><line style="stroke:#a80036;stroke-width:1.5" x1="445.25" x2="545.5" y1="874.043" y2="874.043"/><line style="stroke:#a80036;stroke-width:1.5" x1="545.5" x2="545.5" y1="874.043" y2="896.043"/><polygon fill="#A80036" points="541.5 886.043 545.5 896.043 549.5 886.043 545.5 890.043" style="stroke:#a80036;stroke-width:1"/><line style="stroke:#a80036;stroke-width:1.5" x1="386.75" x2="386.75" y1="842.043" y2="862.043"/><polygon fill="#A80036" points="382.75 852.043 386.75 862.043 390.75 852.043 386.75 856.043" style="stroke:#a80036;stroke-width:1"/><line style="stroke:#a80036;stroke-width:1.5" x1="1011" x2="1011" y1="334.828" y2="378.961"/><polygon fill="#A80036" points="1007 368.961 1011 378.961 1015 368.961 1011 372.961" style="stroke:#a80036;stroke-width:1"/><line style="stroke:#a80036;stroke-width:1.5" x1="571.875" x2="386.75" y1="278.859" y2="278.859"/><line style="stroke:#a80036;stroke-width:1.5" x1="386.75" x2="386.75" y1="278.859" y2="300.859"/><polygon fill="#A80036" points="382.75 290.859 386.75 300.859 390.75 290.859 386.75 294.859" style="stroke:#a80036;stroke-width:1"/><line style="stroke:#a80036;stroke-width:1.5" x1="825.875" x2="1011" y1="278.859" y2="278.859"/><line style="stroke:#a80036;stroke-width:1.5" x1="1011" x2="1011" y1="278.859" y2="300.859"/><polygon fill="#A80036" points="1007 290.859 1011 300.859 1015 290.859 1011 294.859" style="stroke:#a80036;stroke-width:1"/><line style="stroke:#a80036;stroke-width:1.5" x1="1309.5" x2="1309.5" y1="300.828" y2="335.828"/><polygon fill="#A80036" points="1305.5 325.828 1309.5 335.828 1313.5 325.828 1309.5 329.828" style="stroke:#a80036;stroke-width:1"/><line style="stroke:#a80036;stroke-width:1.5" x1="823.688" x2="698.875" y1="244.859" y2="244.859"/><line style="stroke:#a80036;stroke-width:1.5" x1="698.875" x2="698.875" y1="244.859" y2="266.859"/><polygon fill="#A80036" points="694.875 256.859 698.875 266.859 702.875 256.859 698.875 260.859" style="stroke:#a80036;stroke-width:1"/><line style="stroke:#a80036;stroke-width:1.5" x1="1184.688" x2="1309.5" y1="244.859" y2="244.859"/><line style="stroke:#a80036;stroke-width:1.5" x1="1309.5" x2="1309.5" y1="244.859" y2="266.859"/><polygon fill="#A80036" points="1305.5 256.859 1309.5 266.859 1313.5 256.859 1309.5 260.859" style="stroke:#a80036;stroke-width:1"/><line style="stroke:#a80036;stroke-width:1.5" x1="1004.188" x2="1004.188" y1="212.859" y2="232.859"/><polygon fill="#A80036" points="1000.188 222.859 1004.188 232.859 1008.188 222.859 1004.188 226.859" style="stroke:#a80036;stroke-width:1"/></g></svg>